<svg id="Layer_1" data-name="Layer 1" xmlns="http://www.w3.org/2000/svg" viewBox="0 0 512 512">
    <defs>
        <style>
            .cls-1,
            .cls-2 {
                fill: none;
                stroke: currentColor;
                stroke-linejoin: round;
                stroke-width: 20px;
            }

            .cls-2 {
                stroke-linecap: round;
            }
        </style>
    </defs>
    <title>calendar-icons</title>
    <rect class="cls-1" x="48" y="80" width="416" height="384" rx="48" />
    <path class="cls-2" d="M128,48V80M384,48V80m80,80H48" />
    <path
        d="M320.34,315.08V295.21a64.45,64.45,0,0,0-45.66-61.57v-9a18.68,18.68,0,0,0-37.36,0v9a64.45,64.45,0,0,0-45.66,61.57v19.87a97.79,97.79,0,0,1-27.33,68,6.22,6.22,0,0,0,4.5,10.53h56.66a31.14,31.14,0,0,0,61,0h56.66a6.22,6.22,0,0,0,4.5-10.53A97.79,97.79,0,0,1,320.34,315.08Zm-70.57-90.43a6.23,6.23,0,0,1,12.46,0v6.52c-2.05-.19-4.13-.3-6.23-.3s-4.18.11-6.23.3ZM256,406.05a18.71,18.71,0,0,1-17.61-12.46h35.22A18.71,18.71,0,0,1,256,406.05Zm-73.75-24.91a110.09,110.09,0,0,0,21.86-66.06V295.21a51.89,51.89,0,0,1,103.78,0v19.87a110.09,110.09,0,0,0,21.86,66.06Z" />
    <path
        d="M337,295.21a6.23,6.23,0,1,0,12.45,0,92.8,92.8,0,0,0-27.36-66,6.23,6.23,0,1,0-8.8,8.81A80.38,80.38,0,0,1,337,295.21Z" />
    <path
        d="M168.83,301.44a6.22,6.22,0,0,0,6.22-6.23A80.42,80.42,0,0,1,198.76,238a6.23,6.23,0,1,0-8.8-8.81,92.8,92.8,0,0,0-27.36,66A6.23,6.23,0,0,0,168.83,301.44Z" />
</svg>