<?xml version="1.0" encoding="utf-8"?>
<svg version="1.1" id="Layer_1" x="0px" y="0px" viewBox="0 0 68.03 68.03" enable-background="new 0 0 68.03 1667.336" xmlns="http://www.w3.org/2000/svg">
  <defs><style>.cls-1{fill:#fff;}</style></defs>
  <path d="M1517.641,1035.917c-32.116-47.078-253.464-539.345-256.705-568.486c70.139-10.601,114.865-68.304,115.125-128.165 c0.207-47.633-45.524-62.622-65.021-41.503c-12.995,14.072-4.814,37.253,8.364,38.248c0.083,22.068-11.088,28.351-27.779,44.672 c-16.184,15.826-72.378-4.123-93.164-12.907c-32.879-13.941-62.867-32.93-102.314-56.879l0.029,0.063 c-46.478-27.522-67.176-35.704-89.923-43.522l-0.003-0.073c-85.179-24.578-122.322,0.526-147.645,14.817l0.526,0.257l-0.786,0.099 c-19.339,12.124-28.014,19.614-45.214,23.726c0,0-7.038-2.93-7.049-2.934c-5.114-2.129-7.449-36.53-0.522-51.676 c12.737-27.849,55.114-32.165,63.065-81.473c6.526-39.108-15.422-67.146-43.947-93.632c0,0,0.406-0.202,0.406-0.202 c-0.429,0.213-9.952-9.362-10.87-10.254c-4.857-4.723-8.251-10.733-12.046-16.28c-14.108-20.622-28.67-15.518-26.334-15.729 c-25.487,2.302-29.411,25.915-38.951,34.412l-9.841,9.216l0.366,0.139c-12.823,11.975-34.196,30.473-41.405,61.973 c-8.44,35.793,6.238,61.675,34.322,84.128c19.361,15.479,36.403,23.899,30.822,67.251c-2.389,18.555-7.595,17.137-18.495,12.969 c-54.042-20.67-88.358-103.158-286.719,13.454l0.169,0.151c-7.367,4.458-7.723,4.434-16.371,10.121l-0.178,0.753 c-33.614,18.262-67.222,40.621-112.081,52.085c-13.063,3.338-27.267,8.729-40.849,5.717c-23.97-5.315-44.278-33.198-42.45-50.321 c-0.029,0.269,7.657-3.749,8.368-4.434c15.937-15.367,2.089-49.576-30.515-42.32c-70.264,15.644-29.805,167.681,80.686,177.059 c-1.796,15.462-147.7,364.238-255.237,564.562c-3.387,8.857-8.082,12.048-5.226,20.634c3.878,11.658,21.855,22.181,33.312,26.404 c1.722,0.051,1.684,0.048,1.684,0.048c17.702,68.837,69.831,131.404,115.903,162.096c63.917,42.578,158.721,42.549,199.904,35.323 c76.89-13.073,183.395-79.768,213.216-168.979c4.029-12.053,4.142-12.169,9.119-25.497c19.816,0.12,28.934-22.508,31.732-26.432 c1.027-13.324-3.908-22.195-17.348-26.343c-38.727-86.528-47.08-66.453-131.195-278.653 c-95.908-242.801-68.079-216.707-109.232-294.783c3.326-1.879,6.653-3.759,9.979-5.638c-0.408,0.306-0.54,1.251-0.532,1.704 c15.497-8.43,41.985-38.183,83.893-61.665l-0.089-0.768c22.169-8.593,25.135-9.574,31.014-12.669 c28.953-4.189,112.568-24.375,183.806,90.456l-0.095,0.987c6.046,12.079,24.675,59.169,27.582,70.357 c-30.541,3.454-31.726,32.504-33.528,61.798l0.81-0.412c0.074,8.592,1.331,16.444,3.187,24.608l-0.939,0.189 c2.198,4.366,1.563,2.556,2.786,7.939l1.042-0.337c5.417,10.757,13.152,21.39,21.304,30.879l2.464,8.385 c5.114,17.403-16.212,28.449-18.958,59.928c-2.842,32.586,12.327,45.786,11.039,63.013c-1.725,23.072-11.376,29.673-2.032,56.606 l-0.204,0.371c2.618,5.215,4.48,10.851,6.617,16.279c2.57,6.528,6.947,10.103,6.988,17.941c0.032,6.119-2.57,11.968-4.309,17.75 c-25.589,85.07,37.502,114.076-77.834,327.768l-0.155-0.191c-22.704,43.108-35.935,59.301-17.643,118.531 c16.517,53.486-2.239,53.065-55.099,98.918l0.539,0.362c-3.347,3.293-87.872,97.469-90.494,100.362 c-3.337,3.681,14.785,18.736,17.381,20.398c15.981,10.234,25.463,9.65,74.336,27.196c171.514,61.561,356.491,43.707,498.076-22.945 c13.274-6.545,22.82-14.827,22.001-29.318c-0.005-0.087-11.454-9.345-12.624-10.573c-0.452-0.475-38.733-43.585-38.733-44.152 c-39.377-45.554-34.41-37.849-51.966-53.875l-0.266,0.241c-61.234-48.599-51.405-42.447-32.867-116.12l-0.903,0.432 c4.975-32.617-3.745-47.721-16.038-74.714l-0.488,0.491c-7.453-14.039-10.055-17.299-18.065-34.565l-0.196-0.011 c-39.322-83.117-49.211-111.914-60.024-159.141c0,0-1.261-11.367-1.766-17.284l-0.178,0.016c-1.155-19.91-0.825-29.227,0.231-46.461 l-0.268-0.098c1.286-31.904,1.901-48.923-3.059-74.851l0.071-0.023c-0.333-1.229-0.087-0.061-1.379-6.811l-0.417,0.185 c-2.81-10.368-5.924-19.217-4.032-27.859c1.327-6.064,4.824-17.663,10.178-21.443c7.004-16.292,7.467-31.823,2.911-48.752 c-10.039-37.307,27.111-56.981-4.45-113.042c-9.198-16.337-7.721-16.403-5.323-32.928c2.171-1.689,3.61-2.705,5.187-5.324 l0.02,0.335l13.83-19.408c11.8-16.562,21.818-92.578-22.274-100.338l-1.062,1.104l-0.286-0.238 c4.159-12.942,21.715-57.299,23.463-61.487l-0.221-0.391c36.087-69.395,89.512-101.139,137.879-104.455 c12.172-0.834,13.07-1.203,38.155,1.698l-0.055-0.69l0.458,0.914c27.191,6.581,35.719,11.18,60.132,24.698l-0.041,0.628 c13.987,9.178,11.01,7.099,60.564,47.253l-1-2.035c5.514,3.787,11.29,7.16,17.289,10.085 c-41.944,71.11-20.855,85.222-124.988,332.351c-82.988,197.97-74.833,150.244-116.074,241.324 c-13.428,4.224-18.287,12.95-17.273,25.551c2.42,4.073,11.286,27.087,31.814,27.127c21.119,57.143,9.38,39.414,29.079,68.282 c39.059,57.241,99.617,100.04,160.679,118.49c74.952,22.647,169.891,9.023,214.813-17.345 c61.822-36.288,113.207-96.66,133.76-172.367c9.08-1.247,33.738-15.549,35.331-29.12 C1522.175,1045.738,1521.738,1040.952,1517.641,1035.917z M425.461,673.37c40.255,127.121,137.149,337.789,148.384,353.331 c-23.283,1.607-24.157,2.314-79.699,0.481c-183.506-6.043-53.831,8.751-406.499-2.943c13.112-44.28,40.572-79.266,60.513-121.469 c24.94-52.585,46.7-106.979,70.615-159.685c43.346-96.576,80.339-174.406,103.67-274.025c8.058-0.172,15.796-0.576,25.981-2.805 C364.855,486.241,417.411,648.65,425.461,673.37z M511.675,337.812c0.911-1.105,1.633-2.261,2.132-3.472 C513.839,335.355,513.041,336.837,511.675,337.812z M656.555,395.222c-0.128-0.228-0.238-0.484-0.313-0.751 c0.184-0.069,0.473-0.112,0.789-0.085C656.962,394.628,656.796,394.94,656.555,395.222z M742.803,429.127 c-0.178-0.27-0.288-0.569-0.349-0.847c0.338-0.091,0.433-0.027,0.528,0.047C742.968,428.587,742.903,428.87,742.803,429.127z M915.488,378.701c-0.026-0.223-0.015-0.434,0.018-0.618c0.418,0.088,0.789,0.282,1.065,0.489L915.488,378.701z M1324.481,1028.454 c-72.427,3.992-145.272-3.182-192.079-2.755c-65.254-0.452-98.333,4.92-152.648,0.906c2.322-2.237,0.741-0.898,3.67-3.331 c4.56-11.776,3.385-14.999,17.477-41.286c21.256-37.447,90.841-201.128,118.549-282.5c76.122-223.835,68.395-211.672,85.934-234.088 c8.379,1.913,16.952,3.076,25.594,3.51c25.87,109.88,60.247,174.716,148.973,377.786c54.433,122.893,71.078,126.669,85.972,178.125 C1465.923,1024.821,1413.034,1024.61,1324.481,1028.454z" style="fill: rgb(91, 136, 235);"/>
</svg>